<svg width="22" height="22" viewBox="0 0 22 22" fill="none" xmlns="http://www.w3.org/2000/svg">
<path d="M20.5622 1.43744L9.64032 12.3593M1.4897 8.37213L20.2397 1.27572C20.3073 1.24985 20.381 1.24412 20.4519 1.25922C20.5227 1.27432 20.5876 1.3096 20.6388 1.36081C20.69 1.41202 20.7253 1.47696 20.7404 1.54779C20.7555 1.61861 20.7498 1.6923 20.7239 1.75994L13.6275 20.5099C13.5993 20.5811 13.5499 20.642 13.4861 20.6843C13.4222 20.7266 13.347 20.7484 13.2704 20.7467C13.1938 20.7449 13.1196 20.7198 13.0578 20.6746C12.9959 20.6294 12.9494 20.5664 12.9244 20.494L9.76501 12.7085C9.72818 12.5982 9.66619 12.498 9.58394 12.4157C9.50169 12.3335 9.40144 12.2715 9.2911 12.2346L1.50563 9.07807C1.43229 9.05366 1.36828 9.00719 1.32236 8.94501C1.27645 8.88283 1.25086 8.80798 1.24912 8.73071C1.24737 8.65343 1.26955 8.5775 1.31262 8.51332C1.35568 8.44913 1.41753 8.39982 1.4897 8.37213V8.37213Z" stroke="black" stroke-width="1.5" stroke-linecap="round" stroke-linejoin="round"/>
</svg>
