<svg width="16" height="15" viewBox="0 0 16 15" fill="none" xmlns="http://www.w3.org/2000/svg">
<path d="M12.3131 14.5C12.2079 14.5004 12.1052 14.4676 12.0197 14.4062L8.00064 11.4925L3.98158 14.4062C3.89571 14.4685 3.79227 14.5019 3.6862 14.5015C3.58012 14.5011 3.47692 14.467 3.39151 14.4041C3.3061 14.3412 3.24291 14.2528 3.21107 14.1516C3.17923 14.0504 3.18039 13.9417 3.21439 13.8412L4.78189 9.19843L0.719389 6.41249C0.631393 6.35221 0.564978 6.26537 0.529849 6.16466C0.49472 6.06395 0.492718 5.95464 0.524134 5.85271C0.555551 5.75078 0.618741 5.66157 0.704471 5.59811C0.790201 5.53465 0.893978 5.50027 1.00064 5.49999H6.01251L7.52501 0.845301C7.5576 0.744808 7.62117 0.657218 7.70662 0.595095C7.79207 0.532973 7.895 0.499512 8.00064 0.499512C8.10628 0.499512 8.20921 0.532973 8.29466 0.595095C8.38011 0.657218 8.44368 0.744808 8.47626 0.845301L9.98876 5.50155H15.0006C15.1074 5.5015 15.2114 5.53564 15.2974 5.59898C15.3834 5.66232 15.4469 5.75152 15.4785 5.85353C15.5101 5.95554 15.5082 6.06499 15.4731 6.16586C15.438 6.26672 15.3716 6.3537 15.2835 6.41405L11.2194 9.19843L12.786 13.84C12.8113 13.9151 12.8185 13.9952 12.8068 14.0737C12.7951 14.1521 12.7649 14.2267 12.7187 14.2912C12.6725 14.3557 12.6116 14.4082 12.5411 14.4445C12.4706 14.4808 12.3925 14.4998 12.3131 14.5Z" fill="#FF8682"/>
</svg>
